<?xml version="1.0" encoding="UTF-8" standalone="no"?>
<svg
   xmlns:dc="http://purl.org/dc/elements/1.1/"
   xmlns:cc="http://creativecommons.org/ns#"
   xmlns:rdf="http://www.w3.org/1999/02/22-rdf-syntax-ns#"
   xmlns:svg="http://www.w3.org/2000/svg"
   xmlns="http://www.w3.org/2000/svg"
   viewBox="0 0 85.315063 38.666668"
   height="38.666668"
   width="85.315063"
   xml:space="preserve"
   id="svg3869"
   version="1.1"><metadata
     id="metadata3875"><rdf:RDF><cc:Work
         rdf:about=""><dc:format>image/svg+xml</dc:format><dc:type
           rdf:resource="http://purl.org/dc/dcmitype/StillImage" /><dc:title></dc:title></cc:Work></rdf:RDF></metadata><defs
     id="defs3873"><clipPath
       id="clipPath3885"
       clipPathUnits="userSpaceOnUse"><path
         id="path3883"
         d="M 0,29 H 63.986 V 0 H 0 Z" /></clipPath></defs><g
     transform="matrix(1.3333333,0,0,-1.3333333,0,38.666667)"
     id="g3877"><g
       id="g3879"><g
         clip-path="url(#clipPath3885)"
         id="g3881"><g
           transform="translate(59.753,24.752)"
           id="g3887"><path
             id="path3889"
             style="fill:currentColor;fill-opacity:1;fill-rule:nonzero;stroke:none"
             d="m 0,0 c -2.735,2.74 -6.373,4.248 -10.241,4.248 -3.868,0 -7.506,-1.508 -10.241,-4.248 -0.002,-0.002 -0.004,-0.005 -0.006,-0.007 -0.002,-0.001 -0.003,-0.003 -0.004,-0.004 l -17.375,-17.665 c 0,-0.001 0,-0.002 -0.001,-0.002 -1.98,-1.982 -4.611,-3.074 -7.41,-3.074 -2.8,0 -5.431,1.092 -7.411,3.074 -4.088,4.095 -4.088,10.758 0,14.853 1.98,1.981 4.611,3.073 7.411,3.073 2.799,0 5.43,-1.092 7.411,-3.073 0.012,-0.013 0.026,-0.021 0.039,-0.032 0.012,-0.012 0.021,-0.028 0.035,-0.039 l 3.692,-3.339 c 0.383,-0.347 0.863,-0.517 1.341,-0.517 0.545,0 1.09,0.223 1.485,0.658 0.74,0.821 0.676,2.084 -0.143,2.825 L -35.11,0.07 c -0.006,0.006 -0.013,0.009 -0.019,0.014 -2.725,2.684 -6.322,4.164 -10.149,4.164 -3.868,0 -7.506,-1.508 -10.242,-4.247 -5.644,-5.653 -5.644,-14.853 0,-20.505 2.736,-2.74 6.374,-4.248 10.242,-4.248 3.868,0 7.505,1.508 10.241,4.248 0.002,0.002 0.004,0.005 0.006,0.007 0.002,0.001 0.003,0.003 0.004,0.004 l 17.375,17.665 c 0,10e-4 0,0.002 0.001,0.002 1.979,1.982 4.61,3.074 7.41,3.074 2.8,0 5.43,-1.092 7.411,-3.074 4.088,-4.095 4.088,-10.758 0,-14.853 -1.981,-1.981 -4.611,-3.073 -7.411,-3.073 -2.8,0 -5.431,1.092 -7.411,3.073 -0.012,0.012 -0.026,0.019 -0.037,0.031 -0.013,0.012 -0.022,0.027 -0.036,0.04 l -3.693,3.339 c -0.818,0.742 -2.083,0.677 -2.824,-0.141 -0.741,-0.819 -0.678,-2.084 0.14,-2.825 l 3.694,-3.34 c 0.007,-0.007 0.015,-0.011 0.023,-0.018 2.723,-2.68 6.319,-4.159 10.144,-4.159 3.868,0 7.506,1.508 10.241,4.247 C 5.645,-14.852 5.645,-5.652 0,0" /></g></g></g></g></svg>