<?xml version="1.0" encoding="UTF-8" standalone="no"?>
<svg
   xmlns:dc="http://purl.org/dc/elements/1.1/"
   xmlns:cc="http://creativecommons.org/ns#"
   xmlns:rdf="http://www.w3.org/1999/02/22-rdf-syntax-ns#"
   xmlns:svg="http://www.w3.org/2000/svg"
   xmlns="http://www.w3.org/2000/svg"
   viewBox="0 0 45.332401 85.333336"
   height="85.333336"
   width="45.332401"
   xml:space="preserve"
   id="svg3775"
   version="1.1"><metadata
     id="metadata3781"><rdf:RDF><cc:Work
         rdf:about=""><dc:format>image/svg+xml</dc:format><dc:type
           rdf:resource="http://purl.org/dc/dcmitype/StillImage" /><dc:title></dc:title></cc:Work></rdf:RDF></metadata><defs
     id="defs3779"><clipPath
       id="clipPath3791"
       clipPathUnits="userSpaceOnUse"><path
         id="path3789"
         d="M 0,64 H 33.999 V 0 H 0 Z" /></clipPath></defs><g
     transform="matrix(1.3333333,0,0,-1.3333333,0,85.333333)"
     id="g3783"><g
       id="g3785"><g
         clip-path="url(#clipPath3791)"
         id="g3787"><g
           transform="translate(7.0143,24)"
           id="g3793"><path
             id="path3795"
             style="fill:currentColor;fill-opacity:1;fill-rule:nonzero;stroke:none"
             d="m 0,0 h 3.831 c 0.597,0 1.162,-0.267 1.542,-0.727 0.38,-0.459 0.534,-1.065 0.422,-1.651 L 3.462,-14.513 16.8,2 h -2.565 c -0.722,0 -1.389,0.391 -1.744,1.021 -0.353,0.63 -0.34,1.402 0.036,2.02 L 20.425,18 h -5.44 c -0.709,0 -1.364,0.375 -1.723,0.985 -0.36,0.612 -0.368,1.367 -0.025,1.987 L 21.587,36 H 3.485 L -2.349,16 h 6.084 c 0.67,0 1.296,-0.336 1.666,-0.895 0.372,-0.558 0.438,-1.265 0.177,-1.882 z m -0.016,-24 c -0.284,0 -0.571,0.061 -0.84,0.186 -0.833,0.386 -1.295,1.291 -1.123,2.192 L 1.409,-4 h -4.424 c -0.669,0 -1.296,0.336 -1.666,0.895 -0.371,0.558 -0.437,1.265 -0.176,1.882 L 0.721,12 h -5.736 c -0.628,0 -1.222,0.297 -1.599,0.8 -0.378,0.504 -0.496,1.156 -0.32,1.76 l 7,24 C 0.314,39.413 1.097,40 1.985,40 h 23 c 0.709,0 1.365,-0.375 1.724,-0.985 0.359,-0.612 0.368,-1.367 0.024,-1.987 L 18.384,22 h 5.601 c 0.723,0 1.39,-0.391 1.745,-1.02 0.353,-0.631 0.339,-1.403 -0.037,-2.021 L 17.796,6 h 3.189 C 21.756,6 22.458,5.558 22.79,4.862 23.122,4.167 23.025,3.343 22.541,2.743 l -21,-26 C 1.151,-23.738 0.575,-24 -0.016,-24" /></g></g></g></g></svg>