<?xml version="1.0" encoding="UTF-8" standalone="no"?>
<svg
   xmlns:dc="http://purl.org/dc/elements/1.1/"
   xmlns:cc="http://creativecommons.org/ns#"
   xmlns:rdf="http://www.w3.org/1999/02/22-rdf-syntax-ns#"
   xmlns:svg="http://www.w3.org/2000/svg"
   xmlns="http://www.w3.org/2000/svg"
   viewBox="0 0 85.333336 80"
   height="80"
   width="85.333336"
   xml:space="preserve"
   id="svg3797"
   version="1.1"><metadata
     id="metadata3803"><rdf:RDF><cc:Work
         rdf:about=""><dc:format>image/svg+xml</dc:format><dc:type
           rdf:resource="http://purl.org/dc/dcmitype/StillImage" /><dc:title></dc:title></cc:Work></rdf:RDF></metadata><defs
     id="defs3801"><clipPath
       id="clipPath3813"
       clipPathUnits="userSpaceOnUse"><path
         id="path3811"
         d="M 0,60 H 64 V 0 H 0 Z" /></clipPath></defs><g
     transform="matrix(1.3333333,0,0,-1.3333333,0,80)"
     id="g3805"><g
       id="g3807"><g
         clip-path="url(#clipPath3813)"
         id="g3809"><g
           transform="translate(62,4)"
           id="g3815"><path
             id="path3817"
             style="fill:currentColor;fill-opacity:1;fill-rule:nonzero;stroke:none"
             d="m 0,0 h -60 c -1.104,0 -2,-0.896 -2,-2 0,-1.105 0.896,-2 2,-2 H 0 c 1.105,0 2,0.895 2,2 0,1.104 -0.895,2 -2,2" /></g><g
           transform="translate(6,31.998)"
           id="g3819"><path
             id="path3821"
             style="fill:currentColor;fill-opacity:1;fill-rule:nonzero;stroke:none"
             d="M 0,0 C 1.104,0 2,-0.896 2,-2 2,-2.492 1.814,-2.938 1.52,-3.285 L 0.711,-3.863 C 0.49,-3.947 0.252,-4 0,-4 c -1.103,0 -2,0.898 -2,2 0,1.104 0.897,2 2,2 m 12,-22 c -1.103,0 -2,0.898 -2,2 0,0.492 0.186,0.938 0.482,1.287 l 0.807,0.576 C 11.512,-18.051 11.75,-18 12,-18 c 1.104,0 2,-0.896 2,-2 0,-1.102 -0.896,-2 -2,-2 m 12,40.002 c 1.104,0 2,-0.898 2,-2 0,-1.104 -0.896,-2 -2,-2 -1.103,0 -2,0.896 -2,2 0,1.102 0.897,2 2,2 m 28,6 c 1.104,0 2,-0.898 2,-2 0,-1.104 -0.896,-2 -2,-2 -1.103,0 -2,0.896 -2,2 0,1.102 0.897,2 2,2 m -14,-30 c -1.103,0 -2,0.896 -2,2 0,1.102 0.897,2 2,2 1.104,0 2,-0.898 2,-2 0,-1.104 -0.896,-2 -2,-2 M 0,-8 c 0.445,0 0.879,0.053 1.296,0.145 l 6.013,-8.416 C 6.492,-17.295 6,-18.59 6,-20 c 0,-3.309 2.691,-6 6,-6 3.309,0 6,2.691 6,6 0,1.689 -0.704,3.217 -1.832,4.307 l 7.348,25.718 c 0.16,-0.011 0.321,-0.023 0.484,-0.023 0.465,0 0.914,0.059 1.349,0.158 L 33.271,-0.318 C 32.479,-1.336 32,-2.611 32,-3.998 c 0,-3.309 2.691,-6 6,-6 3.309,0 6,2.691 6,6 0,1.473 -0.535,2.82 -1.418,3.865 l 8.293,16.244 c 0.365,-0.07 0.74,-0.109 1.125,-0.109 3.309,0 6,2.691 6,6 0,3.309 -2.691,6 -6,6 -3.309,0 -6,-2.691 -6,-6 0,-1.473 0.535,-2.82 1.418,-3.865 L 39.125,1.893 C 38.76,1.961 38.385,2.002 38,2.002 37.537,2.002 37.086,1.943 36.652,1.844 L 28.73,12.322 c 0.793,1.018 1.27,2.291 1.27,3.68 0,3.309 -2.691,6 -6,6 -3.309,0 -6,-2.691 -6,-6 0,-1.689 0.705,-3.217 1.832,-4.307 L 12.484,-14.023 C 12.324,-14.012 12.164,-14 12,-14 c -0.445,0 -0.877,-0.053 -1.295,-0.145 L 4.693,-5.729 C 5.51,-4.703 6,-3.408 6,-2 6,1.309 3.309,4 0,4 -3.309,4 -6,1.309 -6,-2 c 0,-3.309 2.691,-6 6,-6" /></g></g></g></g></svg>