<?xml version="1.0" encoding="UTF-8" standalone="no"?>
<svg
   xmlns:dc="http://purl.org/dc/elements/1.1/"
   xmlns:cc="http://creativecommons.org/ns#"
   xmlns:rdf="http://www.w3.org/1999/02/22-rdf-syntax-ns#"
   xmlns:svg="http://www.w3.org/2000/svg"
   xmlns="http://www.w3.org/2000/svg"
   viewBox="0 0 85.333336 77.333336"
   height="77.333336"
   width="85.333336"
   xml:space="preserve"
   id="svg3823"
   version="1.1"><metadata
     id="metadata3829"><rdf:RDF><cc:Work
         rdf:about=""><dc:format>image/svg+xml</dc:format><dc:type
           rdf:resource="http://purl.org/dc/dcmitype/StillImage" /><dc:title></dc:title></cc:Work></rdf:RDF></metadata><defs
     id="defs3827"><clipPath
       id="clipPath3839"
       clipPathUnits="userSpaceOnUse"><path
         id="path3837"
         d="M 0,58 H 64 V 0 H 0 Z" /></clipPath></defs><g
     transform="matrix(1.3333333,0,0,-1.3333333,0,77.333333)"
     id="g3831"><g
       id="g3833"><g
         clip-path="url(#clipPath3839)"
         id="g3835"><g
           transform="translate(34.123,12.873)"
           id="g3841"><path
             id="path3843"
             style="fill-opacity:1;fill-rule:nonzero;stroke:none"
             d="m 0,0 c -1.17,-1.172 -3.072,-1.172 -4.242,0 -1.172,1.172 -1.172,3.074 0,4.245 C -3.072,5.418 -1.172,5.416 0,4.244 1.17,3.074 1.172,1.172 0,0 m -0.123,8.834 v 16.299 c -0.002,1.096 -0.898,1.987 -2,1.988 -1.104,0 -2.002,-0.892 -2,-1.988 L -4.121,8.834 c -1.08,-0.321 -2.098,-0.908 -2.951,-1.761 -2.733,-2.735 -2.735,-7.168 0,-9.903 2.736,-2.734 7.17,-2.731 9.9,10e-4 2.733,2.733 2.734,7.168 0,9.902 -0.853,0.853 -1.871,1.44 -2.951,1.761" /></g><g
           transform="translate(32,44)"
           id="g3845"><path
             id="path3847"
             style="fill-opacity:1;fill-rule:nonzero;stroke:none"
             d="M 0,0 C 1.105,0 2,0.896 2,2 V 6 C 2,7.105 1.105,8 0,8 -1.104,8 -2,7.105 -2,6 V 2 C -2,0.896 -1.104,0 0,0" /></g><g
           transform="translate(12,28)"
           id="g3849"><path
             id="path3851"
             style="fill-opacity:1;fill-rule:nonzero;stroke:none"
             d="m 0,0 h -4 c -1.104,0 -2,-0.895 -2,-2 0,-1.104 0.896,-2 2,-2 h 4 c 1.105,0 2,0.896 2,2 0,1.105 -0.895,2 -2,2" /></g><g
           transform="translate(56,28)"
           id="g3853"><path
             id="path3855"
             style="fill-opacity:1;fill-rule:nonzero;stroke:none"
             d="m 0,0 h -4 c -1.104,0 -2,-0.895 -2,-2 0,-1.104 0.896,-2 2,-2 h 4 c 1.105,0 2,0.896 2,2 0,1.105 -0.895,2 -2,2" /></g><g
           transform="translate(50.3848,44.3848)"
           id="g3857"><path
             id="path3859"
             style="fill-opacity:1;fill-rule:nonzero;stroke:none"
             d="m 0,0 c -0.781,0.781 -2.047,0.781 -2.828,0.001 l -2.828,-2.829 c -0.781,-0.781 -0.781,-2.047 -0.002,-2.828 0.39,-0.391 0.904,-0.586 1.416,-0.586 0.512,0 1.023,0.195 1.414,0.586 L 0,-2.828 C 0.781,-2.047 0.781,-0.781 0,0" /></g><g
           transform="translate(16.4434,44.3848)"
           id="g3861"><path
             id="path3863"
             style="fill-opacity:1;fill-rule:nonzero;stroke:none"
             d="m 0,0 c -0.781,0.781 -2.049,0.781 -2.83,0 -0.779,-0.781 -0.779,-2.047 0.002,-2.828 L 0,-5.656 c 0.391,-0.391 0.902,-0.586 1.414,-0.586 0.512,0 1.024,0.195 1.414,0.586 0.781,0.781 0.781,2.047 0,2.828 z" /></g><g
           transform="translate(49.3203,4)"
           id="g3865"><path
             id="path3867"
             style="fill-opacity:1;fill-rule:nonzero;stroke:none"
             d="m 0,0 h -34.641 c -6.797,5.35 -10.679,13.33 -10.679,22 0,15.439 12.56,28 28,28 15.439,0 28,-12.561 28,-28 C 10.68,13.33 6.797,5.35 0,0 m -17.32,54 c -17.645,0 -32,-14.355 -32,-32 0,-10.158 4.666,-19.488 12.799,-25.6 0.345,-0.259 0.767,-0.4 1.201,-0.4 h 36 c 0.433,0 0.855,0.141 1.201,0.4 8.135,6.112 12.799,15.442 12.799,25.6 0,17.645 -14.356,32 -32,32" /></g></g></g></g></svg>