<?xml version="1.0" encoding="UTF-8" standalone="no"?>
<svg
   xmlns:dc="http://purl.org/dc/elements/1.1/"
   xmlns:cc="http://creativecommons.org/ns#"
   xmlns:rdf="http://www.w3.org/1999/02/22-rdf-syntax-ns#"
   xmlns:svg="http://www.w3.org/2000/svg"
   xmlns="http://www.w3.org/2000/svg"
   viewBox="0 0 85.332664 72"
   height="72"
   width="85.332664"
   xml:space="preserve"
   id="svg3891"
   version="1.1"><metadata
     id="metadata3897"><rdf:RDF><cc:Work
         rdf:about=""><dc:format>image/svg+xml</dc:format><dc:type
           rdf:resource="http://purl.org/dc/dcmitype/StillImage" /><dc:title></dc:title></cc:Work></rdf:RDF></metadata><defs
     id="defs3895"><clipPath
       id="clipPath3907"
       clipPathUnits="userSpaceOnUse"><path
         id="path3905"
         d="M 0,54 H 63.999 V 0 H 0 Z" /></clipPath></defs><g
     transform="matrix(1.3333333,0,0,-1.3333333,0,72)"
     id="g3899"><g
       id="g3901"><g
         clip-path="url(#clipPath3907)"
         id="g3903"><g
           transform="translate(63.7636,15.9062)"
           id="g3909"><path
             id="path3911"
             style="fill:#212327;fill-opacity:1;fill-rule:nonzero;stroke:none"
             d="m 0,0 -5.561,10.404 c -0.001,-10e-4 -0.001,-10e-4 -0.005,-0.002 -0.075,0.14 -0.161,0.275 -0.272,0.397 -0.738,0.822 -2.004,0.889 -2.824,0.149 l -8.703,-7.832 c -0.821,-0.739 -0.887,-2.003 -0.149,-2.825 0.395,-0.438 0.94,-0.662 1.487,-0.662 0.478,0 0.955,0.17 1.338,0.514 l 4.234,3.81 c -2.955,-9.226 -11.44,-15.859 -21.309,-15.859 -9.237,0 -17.42,5.68 -20.845,14.471 -0.403,1.031 -1.565,1.54 -2.59,1.138 -1.03,-0.401 -1.539,-1.56 -1.137,-2.59 4.029,-10.339 13.674,-17.019 24.572,-17.019 11.907,0 22.125,8.154 25.366,19.392 l 2.869,-5.371 c 0.361,-0.675 1.052,-1.058 1.767,-1.058 0.317,0 0.641,0.076 0.94,0.236 C 0.152,-2.186 0.52,-0.975 0,0" /></g><g
           transform="translate(8.8984,27.1465)"
           id="g3913"><path
             id="path3915"
             style="fill:#212327;fill-opacity:1;fill-rule:nonzero;stroke:none"
             d="m 0,0 8.703,7.832 c 0.82,0.739 0.887,2.004 0.149,2.824 -0.395,0.44 -0.94,0.662 -1.488,0.662 -0.477,0 -0.955,-0.169 -1.337,-0.512 L 1.793,6.996 c 2.955,9.227 11.439,15.858 21.309,15.858 9.236,0 17.419,-5.68 20.845,-14.471 0.403,-1.029 1.565,-1.539 2.59,-1.137 1.029,0.4 1.539,1.561 1.137,2.589 C 43.645,20.174 34,26.854 23.102,26.854 11.195,26.854 0.977,18.701 -2.264,7.461 l -2.87,5.373 c -0.36,0.674 -1.052,1.058 -1.766,1.058 -0.318,0 -0.641,-0.077 -0.94,-0.237 -0.974,-0.52 -1.343,-1.732 -0.822,-2.706 L -3.103,0.545 h 0.006 C -3.021,0.406 -2.936,0.271 -2.825,0.148 -2.086,-0.674 -0.821,-0.738 0,0" /></g></g></g></g></svg>