<svg xmlns="http://www.w3.org/2000/svg" height="72" width="85.333"><defs><clipPath id="a" clipPathUnits="userSpaceOnUse"><path d="M0 54h63.999V0H0z"/></clipPath></defs><g clip-path="url(#a)" transform="matrix(1.33333 0 0 -1.33333 0 72)"><path d="M63.764 15.906L58.203 26.31l-.005-.002c-.075.14-.161.275-.272.397a1.998 1.998 0 01-2.824.15l-8.703-7.833a2.001 2.001 0 011.338-3.487c.478 0 .955.17 1.338.514l4.234 3.81C50.354 10.633 41.869 4 31.999 4c-9.236 0-17.42 5.68-20.844 14.471a2 2 0 01-3.727-1.452C11.457 6.68 21.102 0 32 0c11.907 0 22.125 8.154 25.366 19.392l2.869-5.37a2 2 0 113.529 1.884M8.898 27.146l8.703 7.832a2.001 2.001 0 01-2.676 2.974l-4.234-3.81C13.646 43.37 22.131 50 32.001 50c9.235 0 17.418-5.68 20.844-14.47a2.002 2.002 0 012.59-1.138 1.999 1.999 0 011.137 2.59C52.543 47.32 42.898 54 32 54 20.093 54 9.875 45.847 6.634 34.607l-2.87 5.373a2 2 0 11-3.528-1.885l5.56-10.404H5.8c.076-.139.161-.274.272-.397a2 2 0 012.825-.148" fill="#212327"/></g></svg>